<svg width="15" height="14" viewBox="0 0 15 14" fill="none" xmlns="http://www.w3.org/2000/svg">
<path d="M6.64846 11.4833C6.82342 12.1259 6.43593 12.7865 5.78297 12.9587C5.13001 13.1309 4.45885 12.7495 4.28389 12.1068C4.10893 11.4642 4.49642 10.8036 5.14938 10.6314M6.64846 11.4833C6.4735 10.8406 5.80234 10.4592 5.14938 10.6314M6.64846 11.4833L14.3333 9.45663M5.14938 10.6314L3.09022 3.06797C2.91526 2.42533 2.2441 2.04395 1.59114 2.21615L1 2.37204M8.29457 3.56623L9.47685 3.25444M7.9467 9.27016L12.6759 8.02301C13.3288 7.85081 13.7163 7.19025 13.5413 6.54761L12.2742 1.89317C12.0992 1.25052 11.4281 0.869151 10.7751 1.04135L6.04594 2.2885C5.39299 2.4607 5.00549 3.12125 5.18045 3.7639L6.44762 8.41834C6.62258 9.06098 7.29374 9.44235 7.9467 9.27016Z" stroke="white" stroke-linecap="round" stroke-linejoin="round"/>
</svg>
