<svg width="40" height="43" viewBox="0 0 40 43" fill="none" xmlns="http://www.w3.org/2000/svg">
<path d="M39.5603 16.722L35.6748 12.4885C35.3885 12.1773 35.0122 11.9633 34.5984 11.8763C31.9837 5.33651 25.3733 0.96582 18.0398 0.96582C8.26717 0.96582 0.316406 8.57696 0.316406 17.9323C0.316406 20.9351 1.24384 24.0827 3.07294 27.2877C4.52253 29.8277 6.54009 32.4112 9.0694 34.9666C13.3621 39.3033 17.7186 42.1068 17.7621 42.1346C17.8451 42.1876 17.9414 42.2158 18.0399 42.2158C18.1383 42.2158 18.2346 42.1876 18.3176 42.1346C18.4001 42.0818 26.4659 36.877 31.5599 29.5687C32.0023 29.8245 32.5001 29.9692 33.0107 29.9905C33.5213 30.0117 34.0295 29.9087 34.4915 29.6904C34.9536 29.4721 35.3558 29.145 35.6637 28.7372C35.9716 28.3293 36.176 27.8528 36.2593 27.3486H37.672C37.9367 27.3492 38.1988 27.2975 38.4435 27.1965C38.6881 27.0955 38.9104 26.9471 39.0975 26.76C39.2847 26.5728 39.433 26.3505 39.534 26.1058C39.6349 25.8611 39.6866 25.5989 39.6859 25.3343V17.0705C39.6878 16.942 39.6409 16.8176 39.5549 16.7222L39.5603 16.722ZM34.9149 13.149L38.0073 16.5205H33.3265V12.8252H34.1836C34.3213 12.8258 34.4573 12.8548 34.5832 12.9105C34.709 12.9663 34.822 13.0475 34.9149 13.149ZM18.0396 41.082C15.0805 39.0604 12.3179 36.7652 9.78818 34.2268C7.32564 31.7369 5.36592 29.2272 3.96325 26.7674C2.22731 23.7234 1.34766 20.751 1.34766 17.9325C1.34766 9.14578 8.83573 1.97773 18.0398 1.97773C24.7924 1.97756 30.8904 5.9502 33.4622 11.7939H29.3596C27.0211 7.84082 22.7133 5.28702 18.0398 5.28702C13.061 5.28702 8.72316 8.09339 6.51405 12.1979C6.4788 12.2634 6.45797 12.3356 6.45295 12.4099C6.44794 12.4841 6.45886 12.5585 6.48497 12.6281C6.51109 12.6978 6.55181 12.7611 6.60439 12.8137C6.65697 12.8663 6.72019 12.907 6.78982 12.9332L6.79077 12.936C6.90987 12.9788 7.04029 12.9783 7.15901 12.9343C7.27772 12.8904 7.3771 12.8059 7.43959 12.6959C7.82975 11.9711 8.2328 11.2921 8.83436 10.6652V19.4424H6.03873C6.00839 19.0986 5.99206 18.7421 5.99206 18.3867C5.99182 17.3601 6.12329 16.3377 6.38325 15.3445C6.41796 15.2153 6.40096 15.0777 6.33588 14.9607C6.27079 14.8438 6.16273 14.7569 6.0346 14.7183L6.02678 14.7158C5.96136 14.6962 5.89265 14.6899 5.82474 14.6972C5.75683 14.7046 5.69109 14.7255 5.63141 14.7588C5.57173 14.792 5.51933 14.8369 5.4773 14.8907C5.43527 14.9446 5.40447 15.0063 5.38672 15.0723C5.10331 16.1538 4.96016 17.2673 4.96081 18.3854C4.96081 25.5971 10.828 31.4595 18.0398 31.4595C21.6372 31.4595 25.0889 30.0124 27.5547 27.3483H30.0341C30.1263 27.9246 30.3794 28.4633 30.7641 28.9022C26.3212 35.315 19.4937 40.1038 18.0396 41.082ZM32.2953 12.8252V16.5205H31.5219V12.8252H32.2953ZM16.7411 27.3486H26.0788C24.5269 28.7426 22.6392 29.709 20.601 30.1529C18.5628 30.5969 16.4442 30.5032 14.4531 29.881C15.0349 29.7185 15.5587 29.3942 15.9637 28.946C16.3687 28.4978 16.6382 27.9439 16.7411 27.3486ZM13.6286 28.9668C13.2084 28.9668 12.7977 28.8423 12.4484 28.6089C12.099 28.3756 11.8267 28.0439 11.6659 27.6557C11.5051 27.2676 11.4629 26.8405 11.5449 26.4284C11.6268 26.0164 11.8291 25.6379 12.1261 25.3408C12.4232 25.0437 12.8016 24.8413 13.2137 24.7594C13.6257 24.6774 14.0528 24.7194 14.441 24.8802C14.8291 25.0409 15.1609 25.3132 15.3943 25.6625C15.6277 26.0118 15.7523 26.4225 15.7523 26.8426C15.7517 27.4057 15.5277 27.9456 15.1296 28.3438C14.7315 28.742 14.1917 28.966 13.6286 28.9668ZM16.7411 26.3174C16.4942 24.8564 15.1928 23.6776 13.6286 23.6776C12.0643 23.6776 10.7629 24.8564 10.516 26.3174H8.98793C8.14483 25.3755 7.46253 24.3012 6.9684 23.1377H26.7094V26.3174H16.7411ZM10.6555 27.8888C10.4337 27.7162 10.218 27.5205 10.0091 27.3486H10.5162C10.5483 27.5321 10.5949 27.7127 10.6555 27.8888ZM6.57987 22.1064C6.40954 21.5714 6.27371 21.026 6.17322 20.4736H26.7094V22.1064H6.57987ZM9.86561 19.4424V9.54238C10.1788 9.23882 10.5127 8.95741 10.865 8.7002H13.8187V19.4424H9.86561ZM14.85 19.4424V8.7002H19.1469V19.4424H14.85ZM20.1781 19.4424V8.7002H22.4066C22.9555 8.70391 23.4808 8.92423 23.8681 9.31322C24.2555 9.70222 24.4736 10.2284 24.475 10.7774V19.4424H20.1781ZM25.5062 19.4424V10.7774C25.5045 9.95502 25.1777 9.16668 24.597 8.58435C24.0163 8.00202 23.2289 7.67296 22.4066 7.66895H12.5116C14.2185 6.77876 16.1148 6.31301 18.0398 6.31113C22.1413 6.31113 25.9379 8.44238 28.1506 11.7939H27.2245C26.9398 11.7939 26.7094 12.0639 26.7094 12.3487V19.4424H25.5062ZM27.7406 12.8252H30.4906V16.5205H27.7406V12.8252ZM33.1467 28.9668C32.7266 28.9667 32.3159 28.8421 31.9666 28.6087C31.6173 28.3753 31.3451 28.0436 31.1843 27.6554C31.0236 27.2673 30.9815 26.8402 31.0635 26.4282C31.1454 26.0162 31.3478 25.6377 31.6448 25.3406C31.9419 25.0436 32.3204 24.8413 32.7324 24.7593C33.1444 24.6774 33.5715 24.7194 33.9596 24.8802C34.3478 25.041 34.6795 25.3132 34.9129 25.6625C35.1463 26.0119 35.2709 26.4225 35.2709 26.8426C35.2702 27.4058 35.0462 27.9457 34.648 28.3439C34.2498 28.7422 33.7099 28.9661 33.1467 28.9668ZM38.6547 20.9033H37.5375V19.7002H38.6547V20.9033ZM38.6547 18.6689H37.3078C37.2022 18.6675 37.0974 18.6872 36.9996 18.7269C36.9017 18.7666 36.8128 18.8255 36.7381 18.9001C36.6634 18.9747 36.6044 19.0635 36.5646 19.1613C36.5247 19.2591 36.5049 19.3639 36.5062 19.4695V21.1428C36.5051 21.2479 36.5251 21.3522 36.5651 21.4494C36.6051 21.5467 36.6643 21.6348 36.7391 21.7087C36.8139 21.7826 36.9027 21.8407 37.0005 21.8795C37.0982 21.9183 37.2027 21.937 37.3078 21.9346H38.6547V25.3343C38.6555 25.4636 38.6306 25.5917 38.5815 25.7113C38.5324 25.831 38.4601 25.9396 38.3687 26.0311C38.2773 26.1225 38.1686 26.1949 38.049 26.2441C37.9294 26.2932 37.8013 26.3181 37.672 26.3174H36.2593C36.0124 24.8564 34.7109 23.6776 33.1467 23.6776C31.5824 23.6776 30.2811 24.8564 30.0341 26.3174H27.7406V17.5518H38.6547V18.6689Z" fill="#3E60C9"/>
</svg>
