<svg width="12" height="13" viewBox="0 0 12 13" fill="none" xmlns="http://www.w3.org/2000/svg">
<path fill-rule="evenodd" clip-rule="evenodd" d="M6.00156 11.9001C3.01922 11.9001 0.601562 9.48243 0.601562 6.5001C0.601562 3.51776 3.01922 1.1001 6.00156 1.1001C8.9839 1.1001 11.4016 3.51776 11.4016 6.5001C11.4016 9.48243 8.9839 11.9001 6.00156 11.9001ZM6.60156 6.5001V4.1001C6.60156 3.76873 6.33293 3.5001 6.00156 3.5001C5.67019 3.5001 5.40156 3.76873 5.40156 4.1001V7.1001C5.40156 7.43147 5.67019 7.7001 6.00156 7.7001H7.80156C8.13293 7.7001 8.40156 7.43147 8.40156 7.1001C8.40156 6.76873 8.13293 6.5001 7.80156 6.5001H6.60156Z" fill="#C4C4C4"/>
</svg>
