<svg width="38" height="40" viewBox="0 0 38 40" fill="none" xmlns="http://www.w3.org/2000/svg">
<path d="M34.4026 17.5242C34.3733 17.4658 34.3271 17.4144 34.268 17.3745C34.209 17.3345 34.1389 17.3072 34.064 17.2951L27.0043 15.2914L27.5088 15.0802C27.9415 14.8992 28.3012 14.6177 28.5438 14.2701C28.7864 13.9225 28.9014 13.5238 28.8748 13.1229L28.8162 12.2403C28.8009 12.0022 28.8779 11.7663 29.0359 11.5669L29.6151 10.8394C29.8841 10.502 30.0275 10.1066 30.0275 9.70225C30.0275 9.29794 29.8841 8.90254 29.6151 8.56514L29.036 7.83768C28.878 7.63831 28.801 7.40238 28.8163 7.16425L28.8749 6.28162C28.9015 5.88073 28.7865 5.4821 28.544 5.13447C28.3014 4.78685 27.9417 4.5053 27.509 4.32426L26.5657 3.92962C26.3093 3.82295 26.1012 3.65068 25.9724 3.43837L25.4958 2.65713C25.2772 2.29877 24.9372 2.00094 24.5175 1.80005C24.0977 1.59916 23.6164 1.50392 23.1323 1.52598L22.0665 1.57452C21.7789 1.5871 21.4941 1.52333 21.2534 1.3925L20.375 0.912849C19.9676 0.690059 19.4901 0.571289 19.0019 0.571289C18.5137 0.571289 18.0363 0.690059 17.6289 0.912849L16.7505 1.3925C16.5097 1.52313 16.2249 1.58689 15.9374 1.57452L14.8715 1.52598C14.3874 1.50374 13.906 1.59888 13.4863 1.79974C13.0665 2.0006 12.7265 2.29848 12.508 2.65689L12.0314 3.43813C11.9025 3.65047 11.6944 3.82274 11.438 3.92938L10.4948 4.32402C10.0621 4.50505 9.70244 4.78659 9.45984 5.13422C9.21725 5.48184 9.10224 5.88048 9.12888 6.28138L9.1875 7.16401C9.20275 7.40214 9.12578 7.63807 8.9678 7.83744L8.38853 8.56498C8.11953 8.90236 7.97613 9.29775 7.97613 9.70205C7.97613 10.1063 8.11953 10.5017 8.38853 10.8391L8.96771 11.5667C9.12568 11.766 9.20266 12.002 9.1874 12.2401L9.12879 13.1227C9.10216 13.5236 9.21716 13.9222 9.45974 14.2698C9.70231 14.6174 10.0619 14.899 10.4947 15.08L11.0399 15.3081L3.93961 17.2942C3.8645 17.3064 3.79418 17.3337 3.73489 17.3738C3.67561 17.4138 3.6292 17.4654 3.5998 17.5239L0.562608 22.2989C0.493603 22.4116 0.481093 22.5424 0.527796 22.6627C0.574498 22.7831 0.676642 22.8833 0.812046 22.9416L3.84368 24.2719V33.4864C3.84089 33.575 3.86864 33.6624 3.9237 33.7384C3.97875 33.8144 4.05882 33.8758 4.15451 33.9155L18.7584 39.766C18.8353 39.7974 18.9197 39.8137 19.0054 39.8137C19.0916 39.8137 19.1767 39.7974 19.2541 39.766L33.8501 33.9155C33.9457 33.8758 34.0256 33.8143 34.0805 33.7383C34.1354 33.6623 34.163 33.575 34.16 33.4864V24.2719L37.1952 22.9416C37.3294 22.8824 37.4299 22.7815 37.4746 22.6611C37.5193 22.5406 37.5046 22.4104 37.4338 22.299L34.4026 17.5242ZM11.0139 14.229C10.7809 14.1315 10.5872 13.9799 10.4566 13.7927C10.326 13.6056 10.2641 13.3909 10.2784 13.1751L10.3371 12.2924C10.3653 11.8501 10.2223 11.412 9.92891 11.0418L9.34983 10.3143C9.20496 10.1327 9.12774 9.91976 9.12774 9.70205C9.12774 9.48434 9.20496 9.27143 9.34983 9.08976L9.929 8.3623C10.2224 7.99204 10.3654 7.55389 10.3372 7.11165L10.2785 6.22903C10.2642 6.01315 10.3261 5.79848 10.4567 5.61129C10.5874 5.4241 10.781 5.2725 11.0141 5.17502L11.9572 4.78039C12.4334 4.58229 12.8198 4.26236 13.0591 3.86805L13.5356 3.08672C13.6534 2.89381 13.8364 2.73348 14.0624 2.62532C14.2884 2.51715 14.5476 2.46584 14.8082 2.47765L15.874 2.52627C16.408 2.54985 16.9372 2.43142 17.3842 2.18828L18.2626 1.70856C18.482 1.58861 18.7391 1.52467 19.0019 1.52467C19.2648 1.52467 19.5219 1.58861 19.7412 1.70856L20.6196 2.18828C21.0665 2.43128 21.5955 2.5497 22.1294 2.52627L23.1952 2.47765C23.4559 2.46579 23.7151 2.51708 23.9412 2.62524C24.1672 2.73341 24.3504 2.89376 24.4682 3.08672L24.9447 3.86789C25.1839 4.26222 25.5703 4.58218 26.0464 4.78031L26.9898 5.17494C27.2228 5.27243 27.4165 5.42404 27.5471 5.61123C27.6777 5.79842 27.7396 6.01308 27.7253 6.22895L27.6665 7.11157C27.6384 7.55382 27.7814 7.99196 28.0748 8.36222L28.6538 9.0896C28.7987 9.27128 28.8759 9.48421 28.8759 9.70193C28.8759 9.91965 28.7987 10.1326 28.6538 10.3143L28.0747 11.0417C27.7813 11.412 27.6383 11.8501 27.6664 12.2924L27.7252 13.175C27.7395 13.3909 27.6776 13.6055 27.5469 13.7927C27.4163 13.9799 27.2226 14.1314 26.9896 14.2289L26.0464 14.6236C25.5702 14.8217 25.1838 15.1416 24.9446 15.536L24.4681 16.3173C24.35 16.51 24.1669 16.6702 23.941 16.7783C23.715 16.8865 23.456 16.9379 23.1955 16.9264L22.1297 16.8777C21.5957 16.8544 21.0666 16.9728 20.6194 17.2157L19.741 17.6954C19.5217 17.8154 19.2646 17.8793 19.0017 17.8793C18.7389 17.8793 18.4818 17.8154 18.2624 17.6954L17.384 17.2157C16.9752 16.9937 16.4971 16.8752 16.0082 16.8747C15.9635 16.8747 15.9186 16.8757 15.8739 16.8777L14.8081 16.9264C14.5474 16.9383 14.2882 16.8871 14.0622 16.7789C13.8361 16.6707 13.6531 16.5102 13.5355 16.3172L13.059 15.536C12.8197 15.1417 12.4334 14.8217 11.9572 14.6236L11.0139 14.229ZM18.4262 38.5771L4.99493 33.1875V24.7789L15.6413 29.4736C15.722 29.5101 15.8125 29.5292 15.9045 29.5292C15.9628 29.5292 16.0207 29.5215 16.0761 29.5066C16.149 29.4872 16.2165 29.4559 16.2745 29.4145C16.3326 29.3731 16.38 29.3225 16.4139 29.2657L18.4262 25.93V38.5771ZM18.9998 23.378L10.5245 19.8729C10.2655 19.7659 9.95145 19.7955 9.78999 20.0339C9.74443 20.0901 9.71386 20.1537 9.70032 20.2205C9.68677 20.2873 9.69056 20.3557 9.71144 20.4212C9.73232 20.4867 9.7698 20.5477 9.82139 20.6002C9.87298 20.6528 9.9375 20.6956 10.0106 20.7259L18.229 24.1244L15.646 28.4026L1.84059 22.3227L4.34255 18.3811L6.54912 19.2938C6.6857 19.3503 6.84379 19.3595 6.9886 19.3195C7.1334 19.2794 7.25307 19.1934 7.32127 19.0803C7.38948 18.9671 7.40063 18.8362 7.35228 18.7163C7.30392 18.5964 7.20003 18.4973 7.06344 18.4408L5.59032 17.8316L12.0661 16.0232L12.5079 16.7473C12.7263 17.1058 13.0662 17.4037 13.486 17.6047C13.9058 17.8056 14.3872 17.9007 14.8713 17.8784L15.9372 17.8299C16.2247 17.8175 16.5095 17.8812 16.7503 18.0119L17.6287 18.4916C18.0361 18.7144 18.5135 18.8331 19.0017 18.8331C19.4899 18.8331 19.9674 18.7144 20.3748 18.4916L21.2532 18.0119C21.4939 17.8811 21.7788 17.8174 22.0663 17.8299L23.1321 17.8784C23.6162 17.9007 24.0977 17.8055 24.5174 17.6046C24.9372 17.4037 25.2771 17.1058 25.4956 16.7473L25.9526 15.9982L32.4169 17.8285L18.9998 23.378ZM33.0087 33.1875L19.5775 38.5771V25.93L21.5915 29.266C21.6393 29.3452 21.7128 29.4118 21.8037 29.4583C21.8946 29.5048 21.9994 29.5295 22.1063 29.5295C22.196 29.5295 22.2842 29.5104 22.3623 29.4739L33.0087 24.7789V33.1875ZM22.3573 28.4023L19.7742 24.124L33.6611 18.3811L36.1629 22.3226L22.3573 28.4023Z" fill="#3E60C9"/>
</svg>
