<svg width="18" height="22" viewBox="0 0 18 22" fill="none" xmlns="http://www.w3.org/2000/svg">
<path d="M9.28126 0.109863C7.00288 0.112551 4.81859 1.01882 3.20753 2.62988C1.59647 4.24094 0.690197 6.42523 0.687509 8.70361C0.68478 10.5655 1.29296 12.3769 2.41876 13.8599C2.41876 13.8599 2.65313 14.1685 2.69142 14.213L9.28126 21.9849L15.8742 14.2091C15.9086 14.1677 16.1438 13.8599 16.1438 13.8599L16.1445 13.8575C17.2698 12.3752 17.8777 10.5647 17.875 8.70361C17.8723 6.42523 16.966 4.24094 15.355 2.62988C13.7439 1.01882 11.5596 0.112551 9.28126 0.109863ZM9.28126 11.8286C8.66319 11.8286 8.05901 11.6453 7.5451 11.302C7.0312 10.9586 6.63066 10.4705 6.39414 9.8995C6.15761 9.32848 6.09573 8.70015 6.21631 8.09396C6.33688 7.48777 6.63451 6.93094 7.07155 6.4939C7.50859 6.05687 8.06541 5.75924 8.6716 5.63866C9.27779 5.51808 9.90613 5.57997 10.4771 5.81649C11.0482 6.05301 11.5362 6.45355 11.8796 6.96746C12.223 7.48136 12.4063 8.08555 12.4063 8.70361C12.4052 9.5321 12.0757 10.3264 11.4898 10.9122C10.904 11.498 10.1097 11.8276 9.28126 11.8286Z" fill="#2747C5"/>
</svg>
