<svg width="12" height="11" viewBox="0 0 12 11" fill="none" xmlns="http://www.w3.org/2000/svg">
<path fill-rule="evenodd" clip-rule="evenodd" d="M10.2697 1.86816C9.73449 1.26942 9.02302 0.939941 8.26611 0.939941C7.50909 0.939941 6.87382 1.26942 6.33844 1.86816L5.99842 2.41127L5.65844 1.86816C5.12322 1.26942 4.48775 0.939941 3.73089 0.939941C2.97406 0.939941 2.26229 1.26942 1.72713 1.86816C0.622207 3.10434 0.622207 5.11564 1.72713 6.35134L5.68637 10.1565C5.7511 10.2292 5.83169 10.2737 5.91589 10.2908C5.94413 10.2971 5.97253 10.2999 6.00098 10.2999C6.11298 10.2999 6.22517 10.2522 6.31047 10.1565L10.2697 6.35134C11.3747 5.11564 11.3747 3.10434 10.2697 1.86816Z" fill="#C4C4C4"/>
</svg>
