<svg width="41" height="31" viewBox="0 0 41 31" fill="none" xmlns="http://www.w3.org/2000/svg">
<path d="M9.29538 12.5119C8.84359 12.5119 8.41004 12.5808 7.97851 12.6436C8.1183 12.1736 8.26215 11.6955 8.4931 11.266C8.72406 10.642 9.08468 10.1011 9.44328 9.55608C9.74312 8.96652 10.2719 8.56741 10.6609 8.06295C11.0681 7.57266 11.6232 7.24649 12.0628 6.83927C12.4944 6.41382 13.0596 6.20109 13.5094 5.90125C13.9794 5.6318 14.3886 5.33398 14.8262 5.19217L15.9182 4.74241L16.8785 4.34329L15.8959 0.416992L14.6864 0.708729C14.2995 0.805975 13.8274 0.919428 13.2906 1.05517C12.7415 1.15646 12.156 1.43402 11.5037 1.68727C10.8594 1.97495 10.1139 2.16944 9.42099 2.63136C8.72406 3.07302 7.91976 3.44174 7.21067 4.03332C6.52388 4.64313 5.69526 5.17191 5.08342 5.94785C4.41486 6.67314 3.7544 7.4349 3.24183 8.30201C2.64822 9.1286 2.24506 10.0362 1.81961 10.9337C1.43468 11.8312 1.12471 12.749 0.871462 13.6404C0.391311 15.4273 0.17656 17.125 0.0934954 18.5777C0.0246129 20.0323 0.065132 21.2418 0.150222 22.117C0.180611 22.5303 0.237338 22.9314 0.277857 23.209L0.328506 23.5493L0.381181 23.5372C0.741519 25.2204 1.57103 26.7672 2.77376 27.9987C3.97649 29.2302 5.50328 30.096 7.17753 30.496C8.85177 30.896 10.6051 30.8138 12.2345 30.259C13.864 29.7041 15.3032 28.6993 16.3854 27.3607C17.4677 26.0222 18.1489 24.4045 18.3502 22.695C18.5515 20.9854 18.2648 19.2538 17.5231 17.7005C16.7813 16.1471 15.615 14.8354 14.159 13.9172C12.703 12.999 11.0167 12.5118 9.29538 12.5119ZM31.5809 12.5119C31.1291 12.5119 30.6955 12.5808 30.264 12.6436C30.4038 12.1736 30.5476 11.6955 30.7786 11.266C31.0096 10.642 31.3702 10.1011 31.7288 9.55608C32.0286 8.96652 32.5574 8.56741 32.9464 8.06295C33.3536 7.57266 33.9087 7.24649 34.3483 6.83927C34.7799 6.41382 35.3451 6.20109 35.7949 5.90125C36.2649 5.6318 36.6741 5.33398 37.1117 5.19217L38.2037 4.74241L39.164 4.34329L38.1814 0.416992L36.9719 0.708729C36.585 0.805975 36.1129 0.919428 35.5761 1.05517C35.027 1.15646 34.4415 1.43402 33.7892 1.68727C33.1469 1.97698 32.3994 2.16944 31.7065 2.63339C31.0096 3.07504 30.2053 3.44377 29.4962 4.03535C28.8094 4.64516 27.9808 5.17393 27.3689 5.94785C26.7004 6.67314 26.0399 7.4349 25.5273 8.30201C24.9337 9.1286 24.5306 10.0362 24.1051 10.9337C23.7202 11.8312 23.4102 12.749 23.157 13.6404C22.6768 15.4273 22.4621 17.125 22.379 18.5777C22.3101 20.0323 22.3506 21.2418 22.4357 22.117C22.4661 22.5303 22.5228 22.9314 22.5634 23.209L22.614 23.5493L22.6667 23.5372C23.027 25.2204 23.8565 26.7672 25.0593 27.9987C26.262 29.2302 27.7888 30.096 29.463 30.496C31.1373 30.896 32.8906 30.8138 34.52 30.259C36.1495 29.7041 37.5887 28.6993 38.6709 27.3607C39.7532 26.0222 40.4344 24.4045 40.6357 22.695C40.837 20.9854 40.5503 19.2538 39.8086 17.7005C39.0668 16.1471 37.9005 14.8354 36.4445 13.9172C34.9885 12.999 33.3022 12.5118 31.5809 12.5119Z" fill="#3840A9"/>
</svg>
