<svg width="40" height="35" viewBox="0 0 40 35" fill="none" xmlns="http://www.w3.org/2000/svg">
<path d="M39.832 6.38125L36.6048 2.17067C36.2513 1.71227 35.7977 1.34076 35.2786 1.08455C34.7596 0.828334 34.1888 0.694193 33.61 0.692383H7.04587C6.52329 0.693138 6.00653 0.802131 5.52816 1.01249C5.04979 1.22286 4.62018 1.53003 4.26641 1.91465L0.196016 6.34745L0.196426 6.34803C0.112801 6.43861 0.0663774 6.55738 0.0664063 6.68066V7.8291C0.0671145 8.32116 0.165185 8.80821 0.354967 9.26219C0.544748 9.71618 0.82249 10.1281 1.17219 10.4743C1.77417 11.0864 2.5745 11.4641 3.42969 11.5396V30.7147C3.4261 31.2082 3.52002 31.6975 3.70606 32.1546C3.89209 32.6117 4.16658 33.0275 4.51377 33.3782C4.86095 33.729 5.27399 34.0076 5.72917 34.1983C6.18436 34.389 6.67271 34.4878 7.16621 34.4893H32.8338C33.3273 34.4878 33.8156 34.389 34.2708 34.1983C34.726 34.0076 35.139 33.729 35.4862 33.3782C35.8334 33.0275 36.1079 32.6117 36.2939 32.1546C36.48 31.6975 36.5739 31.2082 36.5703 30.7147V11.5396C37.4255 11.4641 38.2258 11.0864 38.8278 10.4743C39.1775 10.1281 39.4552 9.71618 39.645 9.26219C39.8348 8.80821 39.9329 8.32116 39.9336 7.8291V6.68066C39.9336 6.57242 39.8977 6.46722 39.8316 6.3815L39.832 6.38125ZM33.61 1.67676C34.0379 1.67808 34.4598 1.77724 34.8435 1.96665C35.2272 2.15606 35.5625 2.4307 35.8238 2.76958L38.444 6.18848H33.2268L30.263 1.67676H33.61ZM26.6153 7.17285H32.4688V8.56976C32.4676 9.58059 32.0655 10.5497 31.3507 11.2644C30.636 11.9792 29.6669 12.3813 28.656 12.3824C28.4748 12.3818 28.2939 12.3681 28.1146 12.3414C28.1159 12.3174 28.1176 12.2937 28.1188 12.2697C28.2059 10.4499 27.6762 8.65401 26.6153 7.17285ZM29.0845 1.67676L32.0483 6.18848H25.7875C25.2966 5.6899 24.7438 5.25633 24.1426 4.89837L22.8941 1.67676H29.0845ZM18.1612 1.67676H21.8382L22.845 4.27543C21.01 3.58887 18.9886 3.58925 17.1539 4.27649L18.1612 1.67676ZM17.1055 1.67676L15.8559 4.90182C15.2573 5.25933 14.7066 5.6917 14.2173 6.18848H8.05625L11.628 1.67676H17.1055ZM11.886 12.3501C11.7278 12.3715 11.5684 12.3823 11.4087 12.3824C10.9091 12.3815 10.4145 12.2821 9.95335 12.09C9.49215 11.8979 9.07334 11.6167 8.72086 11.2627C8.36837 10.9086 8.08913 10.4885 7.89909 10.0264C7.70904 9.56436 7.61192 9.06938 7.61328 8.56976V7.17285H13.3883C12.4658 8.45715 11.9409 9.98417 11.8789 11.5642C11.8686 11.8291 11.8714 12.0911 11.886 12.3501ZM4.99156 2.58C5.25305 2.29575 5.57058 2.06874 5.92414 1.91328C6.27771 1.75782 6.65964 1.67729 7.04587 1.67676H10.3727L6.80117 6.18848H1.67873L4.99156 2.58ZM1.05078 7.8291V7.17285H6.54688V7.8291C6.55078 8.19107 6.48237 8.55017 6.34566 8.88534C6.20894 9.22052 6.00667 9.52501 5.7507 9.78098C5.49474 10.0369 5.19024 10.2392 4.85507 10.3759C4.51989 10.5126 4.16079 10.5811 3.79883 10.5771C3.43686 10.5811 3.07776 10.5126 2.74259 10.3759C2.40741 10.2392 2.10292 10.0369 1.84695 9.78098C1.59099 9.52501 1.38872 9.22052 1.252 8.88534C1.11528 8.55017 1.04687 8.19107 1.05078 7.8291ZM25.0859 33.5049H14.832V25.3018H25.0859V33.5049ZM25.0859 24.3174H14.832V22.2666H25.0859V24.3174ZM35.5859 30.7147C35.5897 31.0789 35.5213 31.4403 35.3848 31.778C35.2483 32.1158 35.0463 32.4232 34.7905 32.6825C34.5347 32.9418 34.2301 33.148 33.8943 33.2892C33.5585 33.4303 33.1981 33.5036 32.8338 33.5049H26.0703V22.1014C26.0703 21.6491 25.7433 21.2822 25.291 21.2822H14.709C14.2567 21.2822 13.8477 21.6491 13.8477 22.1014V33.5049H7.16621C6.80194 33.5036 6.44152 33.4303 6.1057 33.2892C5.76988 33.148 5.4653 32.9418 5.2095 32.6825C4.95369 32.4232 4.75172 32.1158 4.6152 31.778C4.47869 31.4403 4.41033 31.0789 4.41406 30.7147V11.5176C5.18842 11.3903 5.90415 11.0258 6.46246 10.4743C6.59676 10.3366 6.71997 10.1884 6.83095 10.0313C7.14079 10.9987 7.7496 11.8429 8.56975 12.4423C9.3899 13.0417 10.3791 13.3654 11.3949 13.3668C11.5975 13.3665 11.7999 13.3533 12.0008 13.3271C12.1228 14.008 12.3319 14.6704 12.623 15.2979C12.679 15.4144 12.7786 15.5042 12.9002 15.5479C13.0218 15.5916 13.1558 15.5857 13.2731 15.5315C13.3904 15.4772 13.4817 15.3791 13.5272 15.2581C13.5728 15.1372 13.5689 15.0032 13.5165 14.885C13.0659 13.9098 12.841 12.8455 12.8587 11.7714C12.8764 10.6972 13.1361 9.64092 13.6186 8.68106C14.101 7.72121 14.7938 6.88254 15.6453 6.22751C16.4968 5.57247 17.485 5.11794 18.5365 4.89775C19.588 4.67756 20.6756 4.69738 21.7183 4.95574C22.7611 5.21411 23.7322 5.70435 24.5592 6.38999C25.3862 7.07562 26.048 7.93897 26.4951 8.91577C26.9423 9.89257 27.1634 10.9577 27.1419 12.0317C27.0676 15.8035 24.0236 18.8961 20.2534 19.0271C18.4775 19.0917 16.7418 18.4892 15.3879 17.3382C15.309 17.2706 15.2108 17.2296 15.1072 17.2211C15.0037 17.2127 14.9001 17.2371 14.8113 17.2909C14.7447 17.3317 14.6887 17.3878 14.648 17.4544C14.6073 17.5211 14.583 17.5965 14.5772 17.6744C14.5713 17.7523 14.584 17.8304 14.6143 17.9025C14.6446 17.9745 14.6915 18.0383 14.7512 18.0886C16.3164 19.4194 18.3291 20.1052 20.3813 20.007C24.194 19.8321 27.3434 16.9935 28.0008 13.3208C29.1119 13.4758 30.2422 13.2357 31.1943 12.6424C32.1465 12.0491 32.86 11.1403 33.2104 10.0745C33.3098 10.2155 33.4192 10.3491 33.5379 10.4742C34.0961 11.0256 34.8117 11.3902 35.5859 11.5176V30.7147ZM38.9492 7.8291C38.9492 8.55793 38.6597 9.25691 38.1443 9.77226C37.629 10.2876 36.93 10.5771 36.2012 10.5771C35.4723 10.5771 34.7734 10.2876 34.258 9.77226C33.7426 9.25691 33.4531 8.55793 33.4531 7.8291V7.17285H38.9492V7.8291Z" fill="#3E60C9"/>
</svg>
