<svg width="20" height="21" viewBox="0 0 20 21" fill="none" xmlns="http://www.w3.org/2000/svg">
<path d="M8.03281 1.77141C8.8375 0.0761981 11.1625 0.076195 11.9672 1.77141L13.3579 4.70118C13.6774 5.37435 14.2951 5.84094 15.0096 5.94888L18.1193 6.41869C19.9187 6.69053 20.6371 8.98954 19.3351 10.3091L17.0849 12.5896C16.5679 13.1136 16.332 13.8685 16.454 14.6084L16.9852 17.8285C17.2926 19.6918 15.4116 21.1126 13.8022 20.2329L11.0208 18.7126C10.3817 18.3633 9.61825 18.3633 8.97917 18.7126L6.19776 20.2329C4.58839 21.1126 2.70742 19.6918 3.01479 17.8286L3.54599 14.6084C3.66804 13.8685 3.43211 13.1136 2.91508 12.5896L0.664875 10.3091C-0.637134 8.98954 0.0813282 6.69053 1.88066 6.41869L4.99037 5.94888C5.70489 5.84094 6.32257 5.37435 6.64211 4.70118L8.03281 1.77141Z" fill="#FFC000"/>
</svg>
