<svg width="22" height="21" viewBox="0 0 22 21" fill="none" xmlns="http://www.w3.org/2000/svg">
<path d="M9.03281 1.77141C9.8375 0.0761981 12.1625 0.076195 12.9672 1.77141L14.3579 4.70118C14.6774 5.37435 15.2951 5.84094 16.0096 5.94888L19.1193 6.41869C20.9187 6.69053 21.6371 8.98954 20.3351 10.3091L18.0849 12.5896C17.5679 13.1136 17.332 13.8685 17.454 14.6084L17.9852 17.8285C18.2926 19.6918 16.4116 21.1126 14.8022 20.2329L12.0208 18.7126C11.3817 18.3633 10.6183 18.3633 9.97917 18.7126L7.19776 20.2329C5.58839 21.1126 3.70742 19.6918 4.01479 17.8286L4.54599 14.6084C4.66804 13.8685 4.43211 13.1136 3.91508 12.5896L1.66488 10.3091C0.362866 8.98954 1.08133 6.69053 2.88066 6.41869L5.99037 5.94888C6.70489 5.84094 7.32257 5.37435 7.64211 4.70118L9.03281 1.77141Z" stroke="#C4C4C4" stroke-linejoin="round"/>
</svg>
