<svg width="34" height="43" viewBox="0 0 34 43" fill="none" xmlns="http://www.w3.org/2000/svg">
<path d="M30.1264 30.7968C30.1013 30.7861 30.0755 30.777 30.0491 30.7694L24.9218 29.2177C25.3915 29.0635 25.7962 28.7825 26.0804 28.4134C26.3646 28.0443 26.5141 27.6054 26.5085 27.157V25.759C26.6045 25.7655 26.7108 25.7698 26.7998 25.7698C27.5451 25.7693 28.2694 25.548 28.8601 25.1405C29.4508 24.733 29.8749 24.1619 30.0665 23.5161L31.4139 18.9311C31.8223 17.5301 31.0226 16.0971 29.678 15.4728V12.0498C29.678 5.78727 23.9849 0.692383 17 0.692383C10.0151 0.692383 4.32203 5.78727 4.32203 12.0498V15.4728C2.9774 16.0971 2.17187 17.5298 2.58025 18.9311L3.91912 23.5161C4.03082 23.8994 4.22564 24.2593 4.49248 24.5751C4.75932 24.8908 5.09294 25.1564 5.47427 25.3566C5.85561 25.5568 6.2772 25.6876 6.71495 25.7416C7.15271 25.7957 7.59805 25.7719 8.02554 25.6716L10.2588 25.1485C10.8875 25.7274 11.6051 26.2231 12.3898 26.6205V28.2154L3.94582 30.7693C3.92085 30.777 3.8965 30.7861 3.87293 30.7968C2.80281 31.2785 1.88753 31.9971 1.21376 32.8846C0.539983 33.7721 0.130013 34.7991 0.0226667 35.8683C0.0214181 35.8825 0 35.8968 0 35.9114V42.1525C0.00849138 42.2957 0.0768388 42.4308 0.191429 42.5308C0.306019 42.6309 0.458442 42.6886 0.618339 42.6924H33.3817C33.5416 42.6886 33.694 42.6309 33.8086 42.5308C33.9232 42.4308 33.9915 42.2957 34 42.1525V35.9112C34 35.8968 33.9782 35.8825 33.9769 35.8682C33.8695 34.7989 33.4595 33.7719 32.7857 32.8845C32.1118 31.997 31.1965 31.2784 30.1264 30.7968ZM12.3898 41.659H5.28249V39.5045C5.2825 39.4369 5.26765 39.3699 5.2388 39.3074C5.20995 39.2449 5.16765 39.1882 5.11432 39.1403C5.061 39.0925 4.99769 39.0546 4.92801 39.0287C4.85833 39.0028 4.78365 38.9895 4.70823 38.9895H4.7042C4.62878 38.9895 4.5541 39.0028 4.48442 39.0287C4.41474 39.0546 4.35143 39.0925 4.2981 39.1403C4.24478 39.1882 4.20248 39.2449 4.17363 39.3074C4.14477 39.3699 4.12993 39.4369 4.12994 39.5045V41.659H1.15254V35.9333C1.34463 34.8149 1.79893 33.7672 2.60763 32.9414C3.39553 33.8764 3.90431 34.9763 4.08586 36.1368C4.10832 36.2722 4.18952 36.394 4.31176 36.4759C4.43401 36.5578 4.58739 36.593 4.73848 36.5739C4.88957 36.5549 5.02614 36.483 5.11841 36.3741C5.21068 36.2651 5.25119 36.1279 5.2311 35.9923C5.0079 34.6266 4.40311 33.3336 3.47299 32.2338C3.74869 32.0446 4.043 31.8782 4.35229 31.7368L12.3898 29.306V41.659ZM25.3559 27.157C25.3559 27.8004 24.8192 28.3115 24.1016 28.3115H21.9271L21.6102 28.2155V26.6188C22.3904 26.2206 23.1052 25.7271 23.734 25.1526L25.3559 25.5379V27.157ZM25.4948 24.4913L24.5255 24.2642L26.9791 15.8431L27.9492 16.0703L25.4948 24.4913ZM25.5607 15.511C25.5567 15.5647 25.5364 15.6164 25.5019 15.6605L24.757 15.9729L24.4935 14.9984C23.8481 12.6056 22.2316 10.5142 19.9593 9.13225C19.8347 9.05634 19.6818 9.02722 19.5335 9.05114C19.3852 9.07506 19.2532 9.15011 19.1659 9.26022C18.364 10.27 17.2768 11.0702 16.016 11.5788C14.7551 12.0874 13.3661 12.2861 11.9913 12.1544L11.2867 12.0865C11.1619 12.0744 11.0357 12.0849 10.9155 12.1174C10.7953 12.1498 10.6837 12.2035 10.587 12.2753C10.4904 12.3471 10.4108 12.4356 10.3529 12.5354C10.2951 12.6353 10.2601 12.7445 10.2501 12.8566L9.98447 15.8349C9.58675 15.77 9.00817 15.6595 8.48905 15.5514C8.46139 15.5275 8.44456 15.4952 8.4418 15.4609L8.2401 12.843C8.15728 11.7658 8.32244 10.6847 8.72531 9.66709C9.12819 8.64946 9.76017 7.71698 10.582 6.92761C11.4038 6.13823 12.3979 5.50882 13.5025 5.07848C14.6071 4.64814 15.7986 4.42607 17.003 4.42607C18.2074 4.42607 19.3989 4.64814 20.5035 5.07848C21.6081 5.50882 22.6022 6.13823 23.4241 6.92761C24.2459 7.71698 24.8779 8.64946 25.2807 9.66709C25.6836 10.6847 25.8488 11.7658 25.7659 12.843L25.5607 15.511ZM30.2995 18.6699L28.9633 23.2549C28.8301 23.7097 28.5212 24.1074 28.0916 24.3771C27.6619 24.6468 27.1394 24.7709 26.6172 24.7274L29.0567 16.3572C29.5357 16.5484 29.9235 16.8858 30.151 17.3093C30.3786 17.7328 30.4312 18.2149 30.2995 18.6699ZM5.47458 12.0498C5.47458 6.35708 10.6507 1.72574 17 1.72574C23.3493 1.72574 28.5254 6.35708 28.5254 12.0498V15.1349L26.7763 14.7263L26.9157 12.9144C27.0094 11.6958 26.8226 10.4729 26.3669 9.32175C25.9112 8.17059 25.1963 7.11576 24.2666 6.2228C23.337 5.32984 22.2124 4.61784 20.9629 4.13103C19.7133 3.64422 18.3655 3.39301 17.0031 3.39301C15.6407 3.39301 14.2928 3.64422 13.0433 4.13103C11.7937 4.61784 10.6692 5.32984 9.73954 6.2228C8.80989 7.11576 8.09499 8.17059 7.63927 9.32175C7.18354 10.4729 6.99673 11.6958 7.09044 12.9144L7.2298 14.7252L5.47458 15.1349V12.0498ZM5.03671 23.2549L3.70053 18.6699C3.5687 18.2148 3.62129 17.7325 3.84891 17.309C4.07654 16.8854 4.46443 16.548 4.94354 16.3568L7.38309 24.727C6.8609 24.7705 6.33843 24.6464 5.90874 24.3768C5.47906 24.1072 5.17003 23.7097 5.03671 23.2549ZM8.50519 24.4913L6.05085 16.0703L7.0209 15.8431L9.47447 24.2642L8.50519 24.4913ZM10.5579 23.8946L8.43248 16.6008C10.5171 17.0313 10.6378 16.9534 10.8468 16.8167C10.9154 16.772 10.9723 16.7144 11.0138 16.6481C11.0552 16.5817 11.0802 16.5081 11.0869 16.4322L11.381 13.1352L11.8675 13.1822C13.3482 13.324 14.845 13.1322 16.222 12.6241C17.5991 12.1161 18.813 11.308 19.7537 10.273C21.5609 11.5075 22.839 13.2623 23.373 15.2423L23.8026 16.8303C23.8227 16.9047 23.861 16.9742 23.9147 17.0336C23.9685 17.0931 24.0362 17.1412 24.1132 17.1743C24.1901 17.2074 24.2743 17.2248 24.3597 17.2252C24.4451 17.2256 24.5295 17.2089 24.6068 17.1765L25.511 16.7976L23.4411 23.8988C22.6659 24.762 21.6847 25.4584 20.5697 25.9367C19.4547 26.4151 18.2343 26.6632 16.9982 26.6628C15.7622 26.6625 14.5419 26.4136 13.4273 25.9346C12.3127 25.4556 11.332 24.7586 10.5575 23.8949L10.5579 23.8946ZM19.7853 28.2254V29.5171H16.8079V28.2254H19.7853ZM20.4576 41.659H13.5424V32.0732C14.6113 32.5684 15.7969 32.8268 17 32.8268C18.2031 32.8268 19.3887 32.5684 20.4576 32.0732V41.659ZM20.4576 30.8816C19.4266 31.4767 18.2262 31.7932 17 31.7932C15.7738 31.7932 14.5734 31.4767 13.5424 30.8816V27.1107C14.2429 27.3611 14.9757 27.5318 15.7236 27.6188C15.6782 27.7158 15.655 27.82 15.6554 27.9252V29.7716C15.6554 30.1802 15.9849 30.5503 16.4407 30.5503H20.1512C20.2571 30.5504 20.3617 30.5296 20.4576 30.4894V30.8816ZM28.7175 41.659H21.6102V29.3448H21.7376L29.6421 31.7367C29.9652 31.8854 30.2716 32.0615 30.5571 32.2626C29.3675 33.6617 28.7215 35.3714 28.7175 37.1307V41.659ZM32.8475 41.659H29.8701V37.1307C29.8818 35.6346 30.4247 34.1808 31.4199 32.98C32.2075 33.7998 32.6554 34.8322 32.8475 35.9337V41.659Z" fill="#3E60C9"/>
</svg>
