<svg width="24" height="24" viewBox="0 0 24 24" fill="none" xmlns="http://www.w3.org/2000/svg">
<circle cx="12" cy="17" r="1" transform="rotate(-180 12 17)" fill="#FF2E00"/>
<path d="M12 14L12 6.99997M3 9.13192V14.8681C3 16.3914 3.7923 17.799 5.07846 18.5607L9.92154 21.4288C11.2077 22.1904 12.7923 22.1904 14.0785 21.4288L18.9215 18.5607C20.2077 17.799 21 16.3914 21 14.8681V9.13192C21 7.6086 20.2077 6.20099 18.9215 5.43932L14.0785 2.57125C12.7923 1.80958 11.2077 1.80958 9.92154 2.57125L5.07846 5.43932C3.7923 6.20099 3 7.6086 3 9.13192Z" stroke="#FF2E00" stroke-width="1.5" stroke-linecap="round"/>
</svg>
